<svg xmlns="http://www.w3.org/2000/svg"  viewBox="0 0 48 48" width="48px" height="48px" baseProfile="basic"><path d="M43.982,22H44v-2h-0.501l-3.88-14.477c-0.142-0.53-0.688-0.854-1.217-0.709L21.921,9.093	c-0.258,0.066-0.479,0.233-0.612,0.464l-2.163,3.704l-4.368-0.033c-0.304,0.004-0.525,0.104-0.715,0.293L3.586,24H2v2h0	c0,0,0,0.001,0,0.001c0,0.266,0.105,0.52,0.294,0.707l11.769,11.738c0.189,0.189,0.443,0.266,0.714,0.292l4.369-0.033l2.163,3.704	c0.134,0.229,0.354,0.396,0.61,0.464L38.4,47.188c0.085,0.021,0.17,0.032,0.254,0.032c0.441,0,0.846-0.295,0.965-0.741l4.347-16.22	c0.023-0.085,0.016-0.172,0.016-0.259H44v-2h-1.034l-1.199-1.997l2.091-3.489C43.952,22.357,43.982,22.179,43.982,22z M20.635,15.837l10.019-2.511l-5.739,9.677h-11.51L20.635,15.837z M20.634,36.09l-7.186-7.087h11.504l5.73,9.6L20.634,36.09z M35.95,35.686L30.192,26l5.758-9.715l2.784,9.716L35.95,35.686z"/><path fill="#fff" d="M36.272,36.185l-7.243-12.184l7.243-12.221l3.502,12.221L36.272,36.185z M20.126,34.994l-9.115-8.991	H25.52l7.254,12.153L20.126,34.994z M20.126,12.934l12.611-3.162l-7.254,12.231H10.975L20.126,12.934z M38.653,3.782L22.172,8.061	l-2.455,4.204l-4.947-0.037L3,24l11.769,11.738l4.948-0.037l2.455,4.204l16.481,4.315L43,28l-2.399-3.996L43,20L38.653,3.782z"/><path d="M38.654,45.22c-0.084,0-0.169-0.011-0.254-0.032l-16.481-4.314c-0.257-0.067-0.477-0.234-0.61-0.464l-2.163-3.704	l-4.369,0.033c-0.271,0.012-0.524-0.103-0.714-0.292L2.294,24.708C2.105,24.521,2,24.267,2,24.001s0.105-0.521,0.293-0.708	l11.77-11.772c0.189-0.189,0.411-0.304,0.715-0.293l4.368,0.033l2.163-3.704c0.134-0.23,0.354-0.397,0.612-0.464l16.481-4.278	c0.528-0.144,1.075,0.179,1.217,0.709l4.347,16.218c0.07,0.262,0.031,0.54-0.108,0.772l-2.091,3.489l2.091,3.482	c0.14,0.232,0.179,0.512,0.108,0.773l-4.347,16.22C39.5,44.925,39.096,45.22,38.654,45.22z M22.826,39.043l15.118,3.958l3.979-14.85	l-1.557-2.594l-3.134,10.903c-0.11,0.383-0.438,0.664-0.833,0.716c-0.401,0.045-0.784-0.139-0.987-0.481L28.17,24.512	c-0.188-0.314-0.188-0.706-0.001-1.021l7.243-12.221c0.204-0.343,0.588-0.525,0.988-0.482c0.396,0.052,0.724,0.333,0.833,0.717	l3.136,10.94l1.556-2.596l-3.98-14.851L22.825,8.924l-1.574,2.697l11.243-2.818c0.394-0.098,0.804,0.049,1.045,0.372	s0.265,0.761,0.059,1.107l-7.254,12.23c-0.181,0.304-0.507,0.49-0.86,0.49H10.975c-0.405,0-0.771-0.244-0.925-0.619	s-0.067-0.806,0.221-1.091l8.111-8.038l-3.201-0.024L4.415,23.999l10.764,10.736l3.236-0.024l-8.106-7.996	c-0.289-0.285-0.377-0.716-0.223-1.092c0.153-0.375,0.52-0.62,0.925-0.62H25.52c0.353,0,0.678,0.186,0.858,0.487l7.255,12.153	c0.207,0.347,0.186,0.784-0.056,1.109c-0.241,0.324-0.656,0.474-1.045,0.373L21.225,36.3L22.826,39.043z M20.634,34.09l10.049,2.513	l-5.73-9.6H13.448L20.634,34.09z M30.192,24l5.758,9.686l2.784-9.685l-2.784-9.716L30.192,24z M13.404,21.003h11.51l5.739-9.677	l-10.019,2.511L13.404,21.003z"/></svg>